<svg xmlns="http://www.w3.org/2000/svg" xmlns:xlink="http://www.w3.org/1999/xlink" contentStyleType="text/css" height="833px" preserveAspectRatio="none" style="width:2252px;height:833px;background:#FFFFFF;" version="1.1" viewBox="0 0 2252 833" width="2252px" zoomAndPan="magnify"><defs/><g><!--class Product--><g id="elem_Product"><rect codeLine="3" fill="#F1F1F1" height="227.2656" id="Product" rx="2.5" ry="2.5" style="stroke:#181818;stroke-width:0.5;" width="275" x="896" y="311"/><ellipse cx="1002.25" cy="327" fill="#A9DCDF" rx="11" ry="11" style="stroke:#181818;stroke-width:1.0;"/><path d="M1002.3594,322.3438 L1001.2031,327.4219 L1003.5313,327.4219 L1002.3594,322.3438 Z M1000.875,320.1094 L1003.8594,320.1094 L1007.2188,332.5 L1004.7656,332.5 L1004,329.4375 L1000.7188,329.4375 L999.9688,332.5 L997.5313,332.5 L1000.875,320.1094 Z " fill="#000000"/><text fill="#000000" font-family="sans-serif" font-size="14" font-style="italic" lengthAdjust="spacing" textLength="54" x="1022.75" y="331.8467">Product</text><line style="stroke:#181818;stroke-width:0.5;" x1="897" x2="1170" y1="343" y2="343"/><text fill="#000000" font-family="sans-serif" font-size="14" lengthAdjust="spacing" textLength="93" x="902" y="359.9951">-name: String</text><text fill="#000000" font-family="sans-serif" font-size="14" lengthAdjust="spacing" textLength="96" x="902" y="376.292">-price: double</text><line style="stroke:#181818;stroke-width:0.5;" x1="897" x2="1170" y1="383.5938" y2="383.5938"/><text fill="#000000" font-family="sans-serif" font-size="14" lengthAdjust="spacing" textLength="76" x="902" y="400.5889">+Product()</text><text fill="#000000" font-family="sans-serif" font-size="14" lengthAdjust="spacing" textLength="263" x="902" y="416.8857">+Product(name: String, price: double)</text><text fill="#000000" font-family="sans-serif" font-size="14" lengthAdjust="spacing" textLength="134" x="902" y="433.1826">+getName(): String</text><text fill="#000000" font-family="sans-serif" font-size="14" lengthAdjust="spacing" textLength="209" x="902" y="449.4795">+setName(name: String): void</text><text fill="#000000" font-family="sans-serif" font-size="14" lengthAdjust="spacing" textLength="136" x="902" y="465.7764">+getPrice(): double</text><text fill="#000000" font-family="sans-serif" font-size="14" lengthAdjust="spacing" textLength="206" x="902" y="482.0732">+setPrice(price: double): void</text><text fill="#000000" font-family="sans-serif" font-size="14" lengthAdjust="spacing" textLength="208" x="902" y="498.3701">+equals(obj: Object): boolean</text><text fill="#000000" font-family="sans-serif" font-size="14" lengthAdjust="spacing" textLength="119" x="902" y="514.667">+hashCode(): int</text><text fill="#000000" font-family="sans-serif" font-size="14" lengthAdjust="spacing" textLength="125" x="902" y="530.9639">+toString(): String</text></g><!--class Fruit--><g id="elem_Fruit"><rect codeLine="17" fill="#F1F1F1" height="227.2656" id="Fruit" rx="2.5" ry="2.5" style="stroke:#181818;stroke-width:0.5;" width="457" x="7" y="599"/><ellipse cx="216.25" cy="615" fill="#ADD1B2" rx="11" ry="11" style="stroke:#181818;stroke-width:1.0;"/><path d="M219.2188,620.6406 Q218.6406,620.9375 218,621.0781 Q217.3594,621.2344 216.6563,621.2344 Q214.1563,621.2344 212.8281,619.5938 Q211.5156,617.9375 211.5156,614.8125 Q211.5156,611.6875 212.8281,610.0313 Q214.1563,608.375 216.6563,608.375 Q217.3594,608.375 218,608.5313 Q218.6563,608.6875 219.2188,608.9844 L219.2188,611.7031 Q218.5938,611.125 218,610.8594 Q217.4063,610.5781 216.7813,610.5781 Q215.4375,610.5781 214.75,611.6563 Q214.0625,612.7188 214.0625,614.8125 Q214.0625,616.9063 214.75,617.9844 Q215.4375,619.0469 216.7813,619.0469 Q217.4063,619.0469 218,618.7813 Q218.5938,618.5 219.2188,617.9219 L219.2188,620.6406 Z " fill="#000000"/><text fill="#000000" font-family="sans-serif" font-size="14" lengthAdjust="spacing" textLength="30" x="236.75" y="619.8467">Fruit</text><line style="stroke:#181818;stroke-width:0.5;" x1="8" x2="463" y1="631" y2="631"/><text fill="#000000" font-family="sans-serif" font-size="14" lengthAdjust="spacing" textLength="92" x="13" y="647.9951">-origin: String</text><text fill="#000000" font-family="sans-serif" font-size="14" lengthAdjust="spacing" textLength="108" x="13" y="664.292">-weight: double</text><line style="stroke:#181818;stroke-width:0.5;" x1="8" x2="463" y1="671.5938" y2="671.5938"/><text fill="#000000" font-family="sans-serif" font-size="14" lengthAdjust="spacing" textLength="52" x="13" y="688.5889">+Fruit()</text><text fill="#000000" font-family="sans-serif" font-size="14" lengthAdjust="spacing" textLength="445" x="13" y="704.8857">+Fruit(name: String, price: double, origin: String, weight: double)</text><text fill="#000000" font-family="sans-serif" font-size="14" lengthAdjust="spacing" textLength="134" x="13" y="721.1826">+getOrigin(): String</text><text fill="#000000" font-family="sans-serif" font-size="14" lengthAdjust="spacing" textLength="208" x="13" y="737.4795">+setOrigin(origin: String): void</text><text fill="#000000" font-family="sans-serif" font-size="14" lengthAdjust="spacing" textLength="150" x="13" y="753.7764">+getWeight(): double</text><text fill="#000000" font-family="sans-serif" font-size="14" lengthAdjust="spacing" textLength="232" x="13" y="770.0732">+setWeight(weight: double): void</text><text fill="#000000" font-family="sans-serif" font-size="14" lengthAdjust="spacing" textLength="208" x="13" y="786.3701">+equals(obj: Object): boolean</text><text fill="#000000" font-family="sans-serif" font-size="14" lengthAdjust="spacing" textLength="119" x="13" y="802.667">+hashCode(): int</text><text fill="#000000" font-family="sans-serif" font-size="14" lengthAdjust="spacing" textLength="125" x="13" y="818.9639">+toString(): String</text></g><!--class DairyProduct--><g id="elem_DairyProduct"><rect codeLine="31" fill="#F1F1F1" height="227.2656" id="DairyProduct" rx="2.5" ry="2.5" style="stroke:#181818;stroke-width:0.5;" width="573" x="747" y="599"/><ellipse cx="985.25" cy="615" fill="#ADD1B2" rx="11" ry="11" style="stroke:#181818;stroke-width:1.0;"/><path d="M988.2188,620.6406 Q987.6406,620.9375 987,621.0781 Q986.3594,621.2344 985.6563,621.2344 Q983.1563,621.2344 981.8281,619.5938 Q980.5156,617.9375 980.5156,614.8125 Q980.5156,611.6875 981.8281,610.0313 Q983.1563,608.375 985.6563,608.375 Q986.3594,608.375 987,608.5313 Q987.6563,608.6875 988.2188,608.9844 L988.2188,611.7031 Q987.5938,611.125 987,610.8594 Q986.4063,610.5781 985.7813,610.5781 Q984.4375,610.5781 983.75,611.6563 Q983.0625,612.7188 983.0625,614.8125 Q983.0625,616.9063 983.75,617.9844 Q984.4375,619.0469 985.7813,619.0469 Q986.4063,619.0469 987,618.7813 Q987.5938,618.5 988.2188,617.9219 L988.2188,620.6406 Z " fill="#000000"/><text fill="#000000" font-family="sans-serif" font-size="14" lengthAdjust="spacing" textLength="88" x="1005.75" y="619.8467">DairyProduct</text><line style="stroke:#181818;stroke-width:0.5;" x1="748" x2="1319" y1="631" y2="631"/><text fill="#000000" font-family="sans-serif" font-size="14" lengthAdjust="spacing" textLength="104" x="753" y="647.9951">-fatContent: int</text><text fill="#000000" font-family="sans-serif" font-size="14" lengthAdjust="spacing" textLength="154" x="753" y="664.292">-expirationDate: String</text><line style="stroke:#181818;stroke-width:0.5;" x1="748" x2="1319" y1="671.5938" y2="671.5938"/><text fill="#000000" font-family="sans-serif" font-size="14" lengthAdjust="spacing" textLength="110" x="753" y="688.5889">+DairyProduct()</text><text fill="#000000" font-family="sans-serif" font-size="14" lengthAdjust="spacing" textLength="561" x="753" y="704.8857">+DairyProduct(name: String, price: double, fatContent: int, expirationDate: String)</text><text fill="#000000" font-family="sans-serif" font-size="14" lengthAdjust="spacing" textLength="148" x="753" y="721.1826">+getFatContent(): int</text><text fill="#000000" font-family="sans-serif" font-size="14" lengthAdjust="spacing" textLength="257" x="753" y="737.4795">+setFatContent(fatContent: int): void</text><text fill="#000000" font-family="sans-serif" font-size="14" lengthAdjust="spacing" textLength="194" x="753" y="753.7764">+getExpirationDate(): String</text><text fill="#000000" font-family="sans-serif" font-size="14" lengthAdjust="spacing" textLength="330" x="753" y="770.0732">+setExpirationDate(expirationDate: String): void</text><text fill="#000000" font-family="sans-serif" font-size="14" lengthAdjust="spacing" textLength="208" x="753" y="786.3701">+equals(obj: Object): boolean</text><text fill="#000000" font-family="sans-serif" font-size="14" lengthAdjust="spacing" textLength="119" x="753" y="802.667">+hashCode(): int</text><text fill="#000000" font-family="sans-serif" font-size="14" lengthAdjust="spacing" textLength="125" x="753" y="818.9639">+toString(): String</text></g><!--class Meat--><g id="elem_Meat"><rect codeLine="45" fill="#F1F1F1" height="227.2656" id="Meat" rx="2.5" ry="2.5" style="stroke:#181818;stroke-width:0.5;" width="453" x="1587" y="599"/><ellipse cx="1792.25" cy="615" fill="#ADD1B2" rx="11" ry="11" style="stroke:#181818;stroke-width:1.0;"/><path d="M1795.2188,620.6406 Q1794.6406,620.9375 1794,621.0781 Q1793.3594,621.2344 1792.6563,621.2344 Q1790.1563,621.2344 1788.8281,619.5938 Q1787.5156,617.9375 1787.5156,614.8125 Q1787.5156,611.6875 1788.8281,610.0313 Q1790.1563,608.375 1792.6563,608.375 Q1793.3594,608.375 1794,608.5313 Q1794.6563,608.6875 1795.2188,608.9844 L1795.2188,611.7031 Q1794.5938,611.125 1794,610.8594 Q1793.4063,610.5781 1792.7813,610.5781 Q1791.4375,610.5781 1790.75,611.6563 Q1790.0625,612.7188 1790.0625,614.8125 Q1790.0625,616.9063 1790.75,617.9844 Q1791.4375,619.0469 1792.7813,619.0469 Q1793.4063,619.0469 1794,618.7813 Q1794.5938,618.5 1795.2188,617.9219 L1795.2188,620.6406 Z " fill="#000000"/><text fill="#000000" font-family="sans-serif" font-size="14" lengthAdjust="spacing" textLength="34" x="1812.75" y="619.8467">Meat</text><line style="stroke:#181818;stroke-width:0.5;" x1="1588" x2="2039" y1="631" y2="631"/><text fill="#000000" font-family="sans-serif" font-size="14" lengthAdjust="spacing" textLength="84" x="1593" y="647.9951">-type: String</text><text fill="#000000" font-family="sans-serif" font-size="14" lengthAdjust="spacing" textLength="108" x="1593" y="664.292">-weight: double</text><line style="stroke:#181818;stroke-width:0.5;" x1="1588" x2="2039" y1="671.5938" y2="671.5938"/><text fill="#000000" font-family="sans-serif" font-size="14" lengthAdjust="spacing" textLength="56" x="1593" y="688.5889">+Meat()</text><text fill="#000000" font-family="sans-serif" font-size="14" lengthAdjust="spacing" textLength="441" x="1593" y="704.8857">+Meat(name: String, price: double, type: String, weight: double)</text><text fill="#000000" font-family="sans-serif" font-size="14" lengthAdjust="spacing" textLength="128" x="1593" y="721.1826">+getType(): String</text><text fill="#000000" font-family="sans-serif" font-size="14" lengthAdjust="spacing" textLength="194" x="1593" y="737.4795">+setType(type: String): void</text><text fill="#000000" font-family="sans-serif" font-size="14" lengthAdjust="spacing" textLength="150" x="1593" y="753.7764">+getWeight(): double</text><text fill="#000000" font-family="sans-serif" font-size="14" lengthAdjust="spacing" textLength="232" x="1593" y="770.0732">+setWeight(weight: double): void</text><text fill="#000000" font-family="sans-serif" font-size="14" lengthAdjust="spacing" textLength="208" x="1593" y="786.3701">+equals(obj: Object): boolean</text><text fill="#000000" font-family="sans-serif" font-size="14" lengthAdjust="spacing" textLength="119" x="1593" y="802.667">+hashCode(): int</text><text fill="#000000" font-family="sans-serif" font-size="14" lengthAdjust="spacing" textLength="125" x="1593" y="818.9639">+toString(): String</text></g><!--class Main--><g id="elem_Main"><rect codeLine="59" fill="#F1F1F1" height="227.2656" id="Main" rx="2.5" ry="2.5" style="stroke:#181818;stroke-width:0.5;" width="482" x="600.5" y="7"/><ellipse cx="821.25" cy="23" fill="#ADD1B2" rx="11" ry="11" style="stroke:#181818;stroke-width:1.0;"/><path d="M824.2188,28.6406 Q823.6406,28.9375 823,29.0781 Q822.3594,29.2344 821.6563,29.2344 Q819.1563,29.2344 817.8281,27.5938 Q816.5156,25.9375 816.5156,22.8125 Q816.5156,19.6875 817.8281,18.0313 Q819.1563,16.375 821.6563,16.375 Q822.3594,16.375 823,16.5313 Q823.6563,16.6875 824.2188,16.9844 L824.2188,19.7031 Q823.5938,19.125 823,18.8594 Q822.4063,18.5781 821.7813,18.5781 Q820.4375,18.5781 819.75,19.6563 Q819.0625,20.7188 819.0625,22.8125 Q819.0625,24.9063 819.75,25.9844 Q820.4375,27.0469 821.7813,27.0469 Q822.4063,27.0469 823,26.7813 Q823.5938,26.5 824.2188,25.9219 L824.2188,28.6406 Z " fill="#000000"/><text fill="#000000" font-family="sans-serif" font-size="14" lengthAdjust="spacing" textLength="32" x="841.75" y="27.8467">Main</text><line style="stroke:#181818;stroke-width:0.5;" x1="601.5" x2="1081.5" y1="39" y2="39"/><text fill="#000000" font-family="sans-serif" font-size="14" lengthAdjust="spacing" textLength="177" x="606.5" y="55.9951">-products: List&lt;Product&gt;</text><text fill="#000000" font-family="sans-serif" font-size="14" lengthAdjust="spacing" textLength="127" x="606.5" y="72.292">-scanner: Scanner</text><line style="stroke:#181818;stroke-width:0.5;" x1="601.5" x2="1081.5" y1="79.5938" y2="79.5938"/><text fill="#000000" font-family="sans-serif" font-size="14" lengthAdjust="spacing" textLength="181" x="606.5" y="96.5889">+main(args: String[]): void</text><text fill="#000000" font-family="sans-serif" font-size="14" lengthAdjust="spacing" textLength="122" x="606.5" y="112.8857">-printMenu(): void</text><text fill="#000000" font-family="sans-serif" font-size="14" lengthAdjust="spacing" textLength="132" x="606.5" y="129.1826">-addProduct(): void</text><text fill="#000000" font-family="sans-serif" font-size="14" lengthAdjust="spacing" textLength="150" x="606.5" y="145.4795">-deleteProduct(): void</text><text fill="#000000" font-family="sans-serif" font-size="14" lengthAdjust="spacing" textLength="176" x="606.5" y="161.7764">-displayAllProducts(): void</text><text fill="#000000" font-family="sans-serif" font-size="14" lengthAdjust="spacing" textLength="175" x="606.5" y="178.0732">-compareProducts(): void</text><text fill="#000000" font-family="sans-serif" font-size="14" lengthAdjust="spacing" textLength="344" x="606.5" y="194.3701">-readIntInput(prompt: String, min: int, max: int): int</text><text fill="#000000" font-family="sans-serif" font-size="14" lengthAdjust="spacing" textLength="470" x="606.5" y="210.667">-readDoubleInput(prompt: String, min: double, max: double): double</text><text fill="#000000" font-family="sans-serif" font-size="14" lengthAdjust="spacing" textLength="269" x="606.5" y="226.9639">-readStringInput(prompt: String): String</text></g><g id="elem_GMN11"><path d="M1117.5,100.5 L1117.5,140.7656 A0,0 0 0 0 1117.5,140.7656 L1209.2,140.7656 L1105.14,310.81 L1217.2,140.7656 L1333.5,140.7656 A0,0 0 0 0 1333.5,140.7656 L1333.5,110.5 L1323.5,100.5 L1117.5,100.5 A0,0 0 0 0 1117.5,100.5 " fill="#FEFFDD" style="stroke:#181818;stroke-width:0.5;"/><path d="M1323.5,100.5 L1323.5,110.5 L1333.5,110.5 L1323.5,100.5 " fill="#FEFFDD" style="stroke:#181818;stroke-width:0.5;"/><text fill="#000000" font-family="sans-serif" font-size="13" lengthAdjust="spacing" textLength="195" x="1123.5" y="117.5669">&#1041;&#1072;&#1079;&#1086;&#1074;&#1099;&#1081; &#1072;&#1073;&#1089;&#1090;&#1088;&#1072;&#1082;&#1090;&#1085;&#1099;&#1081; &#1082;&#1083;&#1072;&#1089;&#1089;</text><text fill="#000000" font-family="sans-serif" font-size="13" lengthAdjust="spacing" textLength="138" x="1123.5" y="132.6997">&#1076;&#1083;&#1103; &#1074;&#1089;&#1077;&#1093; &#1087;&#1088;&#1086;&#1076;&#1091;&#1082;&#1090;&#1086;&#1074;</text></g><g id="elem_GMN14"><path d="M499.5,685 L499.5,708.5 L464.22,712.5 L499.5,716.5 L499.5,740.3984 A0,0 0 0 0 499.5,740.3984 L711.5,740.3984 A0,0 0 0 0 711.5,740.3984 L711.5,695 L701.5,685 L499.5,685 A0,0 0 0 0 499.5,685 " fill="#FEFFDD" style="stroke:#181818;stroke-width:0.5;"/><path d="M701.5,685 L701.5,695 L711.5,695 L701.5,685 " fill="#FEFFDD" style="stroke:#181818;stroke-width:0.5;"/><text fill="#000000" font-family="sans-serif" font-size="13" lengthAdjust="spacing" textLength="53" x="505.5" y="702.0669">&#1060;&#1088;&#1091;&#1082;&#1090;&#1099;</text><text fill="#000000" font-family="sans-serif" font-size="13" lengthAdjust="spacing" textLength="149" x="505.5" y="717.1997">&#1055;&#1086;&#1083;&#1103;: &#1085;&#1072;&#1079;&#1074;&#1072;&#1085;&#1080;&#1077;, &#1094;&#1077;&#1085;&#1072;,</text><text fill="#000000" font-family="sans-serif" font-size="13" lengthAdjust="spacing" textLength="191" x="505.5" y="732.3325">&#1089;&#1090;&#1088;&#1072;&#1085;&#1072; &#1087;&#1088;&#1086;&#1080;&#1089;&#1093;&#1086;&#1078;&#1076;&#1077;&#1085;&#1080;&#1103;, &#1074;&#1077;&#1089;</text></g><g id="elem_GMN17"><path d="M1355,685 L1355,708.5 L1320.2,712.5 L1355,716.5 L1355,740.3984 A0,0 0 0 0 1355,740.3984 L1552,740.3984 A0,0 0 0 0 1552,740.3984 L1552,695 L1542,685 L1355,685 A0,0 0 0 0 1355,685 " fill="#FEFFDD" style="stroke:#181818;stroke-width:0.5;"/><path d="M1542,685 L1542,695 L1552,695 L1542,685 " fill="#FEFFDD" style="stroke:#181818;stroke-width:0.5;"/><text fill="#000000" font-family="sans-serif" font-size="13" lengthAdjust="spacing" textLength="145" x="1361" y="702.0669">&#1052;&#1086;&#1083;&#1086;&#1095;&#1085;&#1072;&#1103; &#1087;&#1088;&#1086;&#1076;&#1091;&#1082;&#1094;&#1080;&#1103;</text><text fill="#000000" font-family="sans-serif" font-size="13" lengthAdjust="spacing" textLength="149" x="1361" y="717.1997">&#1055;&#1086;&#1083;&#1103;: &#1085;&#1072;&#1079;&#1074;&#1072;&#1085;&#1080;&#1077;, &#1094;&#1077;&#1085;&#1072;,</text><text fill="#000000" font-family="sans-serif" font-size="13" lengthAdjust="spacing" textLength="176" x="1361" y="732.3325">&#1078;&#1080;&#1088;&#1085;&#1086;&#1089;&#1090;&#1100;, &#1089;&#1088;&#1086;&#1082; &#1075;&#1086;&#1076;&#1085;&#1086;&#1089;&#1090;&#1080;</text></g><g id="elem_GMN20"><path d="M2075.5,685 L2075.5,708.5 L2040.2,712.5 L2075.5,716.5 L2075.5,740.3984 A0,0 0 0 0 2075.5,740.3984 L2245.5,740.3984 A0,0 0 0 0 2245.5,740.3984 L2245.5,695 L2235.5,685 L2075.5,685 A0,0 0 0 0 2075.5,685 " fill="#FEFFDD" style="stroke:#181818;stroke-width:0.5;"/><path d="M2235.5,685 L2235.5,695 L2245.5,695 L2235.5,685 " fill="#FEFFDD" style="stroke:#181818;stroke-width:0.5;"/><text fill="#000000" font-family="sans-serif" font-size="13" lengthAdjust="spacing" textLength="34" x="2081.5" y="702.0669">&#1052;&#1103;&#1089;&#1086;</text><text fill="#000000" font-family="sans-serif" font-size="13" lengthAdjust="spacing" textLength="149" x="2081.5" y="717.1997">&#1055;&#1086;&#1083;&#1103;: &#1085;&#1072;&#1079;&#1074;&#1072;&#1085;&#1080;&#1077;, &#1094;&#1077;&#1085;&#1072;,</text><text fill="#000000" font-family="sans-serif" font-size="13" lengthAdjust="spacing" textLength="92" x="2081.5" y="732.3325">&#1090;&#1080;&#1087; &#1084;&#1103;&#1089;&#1072;, &#1074;&#1077;&#1089;</text></g><!--reverse link Product to Fruit--><g id="link_Product_Fruit"><path codeLine="73" d="M878.4715,468.596 C765.8015,501.006 620.29,545.69 481.5,599 C475.8,601.19 470.05,603.45 464.26,605.76 " fill="none" id="Product-backto-Fruit" style="stroke:#181818;stroke-width:1.0;"/><polygon fill="none" points="895.77,463.62,876.8128,462.8298,880.1301,474.3622,895.77,463.62" style="stroke:#181818;stroke-width:1.0;"/></g><!--reverse link Product to DairyProduct--><g id="link_Product_DairyProduct"><path codeLine="74" d="M1033.5,556.12 C1033.5,576.13 1033.5,578.97 1033.5,598.98 " fill="none" id="Product-backto-DairyProduct" style="stroke:#181818;stroke-width:1.0;"/><polygon fill="none" points="1033.5,538.12,1027.5,556.12,1039.5,556.12,1033.5,538.12" style="stroke:#181818;stroke-width:1.0;"/></g><!--reverse link Product to Meat--><g id="link_Product_Meat"><path codeLine="75" d="M1188.3572,470.2611 C1297.5772,502.8811 1436.27,546.93 1569.5,599 C1575.26,601.25 1581.07,603.57 1586.92,605.94 " fill="none" id="Product-backto-Meat" style="stroke:#181818;stroke-width:1.0;"/><polygon fill="none" points="1171.11,465.11,1186.6402,476.0102,1190.0742,464.512,1171.11,465.11" style="stroke:#181818;stroke-width:1.0;"/></g><!--link Main to Product--><g id="link_Main_Product"><path codeLine="76" d="M913.27,234.38 C929.14,259.35 942.7298,280.7374 958.5998,305.6874 " fill="none" id="Main-to-Product" style="stroke:#181818;stroke-width:1.0;"/><polygon fill="#181818" points="961.82,310.75,960.3648,301.0092,959.1365,306.5311,953.6146,305.3028,961.82,310.75" style="stroke:#181818;stroke-width:1.0;"/><text fill="#000000" font-family="sans-serif" font-size="13" lengthAdjust="spacing" textLength="30" x="938.5" y="277.0669">uses</text></g><!--SRC=[rLNBJXin5DtFLtWPn4JgEa9828g4r1GaAdLHTU7Cc60wiQTZJmjzI8GAkg0IwhvID_q0IacRGXD-mVwZNdiU6Gz9L1OicaKIttlFkMVEjJtY1MKnJd0F1H4MOaNAX7PIIJO2phRf6u8UU1xk29dWG6ObQ2lXOGghjnw2JnCnt2Cjj0r0rir3SK83Y8KyxKJ4nXOBM6EXjgx2VHTPb7Q9V0nLZGMdpI8IURnA0JMlE0qdo2t3QA2E6b4at8OEcBnCSIGQlBFNGfkTFH98o7SuZmXcUSak5hkhFBJybCayAdccfIBulUTbxgqdAPrunnFQfQpctcj2kxko9jZYIlEorHph_1grNsEjMBjf2wUPcsTSfbi6FxN4qnpECxNEz-_n6gR9GNsRxc2vofaaJ4veceZinpJ1adAsXYMfML3bAQrtWdCdKElepsXM6SLwYN0VLZYf6k-jWJnqsamRRArYXgxx7rIRuCc0v45C_kKa650v3RkOEuKgxPnJy0JAfbbburME_s3_jp5bfQrnjbL52psYGYxbEtSvpue0CqOIuCZ-vEmzO6ZWf2iAycVFgxhj3Szacx2quSPn69O7nac492AIpCXH4KVuO2MAyhoe5GIy1oyfCYER41nkCBd1ubJ2VGwrSZBmdhcvxEdhuVtYl4pEly6ksRdCWHTRoJAKKwnCE-F9CDDud1aL5zFIksOpkyZTKFM2SJDcitjskCtcSlaURg5K4E5vZ4i2so96VAV8WJZrMPshNsgiBlIf-erWyLttzP4-X7zN-aYDil2LkbRdaEWRoAMwrcS847qrqCT8tK3rM5tg3nO1L1vX8JBzygw9sU2cR_OuGF5D7sRb-jGilm8AE5j8ZQoS2_WUgQ4Q-4YVg869-b1NAeDrqNO8mMFu_GcoJE5Gd_cW3PJrPyfmB8JsNqnxDTOV3R5vjEeJdHZAEuW49KE0Zu3FoFta6zc6xWgf7uQrIAdXJ85saaQOFWEJntUn26ZL3L9_BFByjXL_0G00]--></g></svg>